<svg xmlns="http://www.w3.org/2000/svg" width="337.5" viewBox="0 0 337.5 112.5" height="112.5" version="1.0"><defs><clipPath id="a"><path d="M 0.496094 0 L 336.503906 0 L 336.503906 112.003906 L 0.496094 112.003906 Z M 0.496094 0"/></clipPath></defs><g clip-path="url(#a)"><path fill="#FFF" d="M 0.496094 0 L 337.003906 0 L 337.003906 118.898438 L 0.496094 118.898438 Z M 0.496094 0"/><path fill="#FFF" d="M 0.496094 0 L 337.003906 0 L 337.003906 112.167969 L 0.496094 112.167969 Z M 0.496094 0"/><path fill="#FFF0F0" d="M 0.496094 0 L 337.003906 0 L 337.003906 112.167969 L 0.496094 112.167969 Z M 0.496094 0"/></g><g fill="#F44647"><g><g><path d="M 103.5 -17.5 C 101.0625 -17.78125 98.601562 -17.921875 96.125 -17.921875 C 95.039062 -17.960938 93.9375 -17.992188 92.8125 -18.015625 C 82.59375 -18.441406 72.34375 -18.550781 62.0625 -18.34375 C 61.550781 -18.34375 61.128906 -18.34375 60.796875 -18.34375 C 60.234375 -18.382812 59.820312 -18.378906 59.5625 -18.328125 C 59.3125 -18.285156 59.109375 -18.144531 58.953125 -17.90625 C 58.804688 -17.675781 58.628906 -17.289062 58.421875 -16.75 C 58.285156 -16.445312 58.117188 -16.066406 57.921875 -15.609375 C 56.210938 -11.878906 54.644531 -8.085938 53.21875 -4.234375 C 52.28125 -1.742188 51.554688 0.804688 51.046875 3.421875 C 50.859375 4.242188 50.789062 5.039062 50.84375 5.8125 C 50.90625 6.582031 51.253906 7.273438 51.890625 7.890625 C 51.984375 7.953125 52.015625 8.03125 51.984375 8.125 C 51.960938 8.21875 51.90625 8.304688 51.8125 8.390625 C 51.726562 8.472656 51.632812 8.53125 51.53125 8.5625 C 50.007812 8.789062 49.097656 8.25 48.796875 6.9375 C 48.617188 6.195312 48.585938 5.4375 48.703125 4.65625 C 48.703125 4.59375 48.703125 4.546875 48.703125 4.515625 C 48.816406 3.179688 49.054688 1.851562 49.421875 0.53125 C 49.785156 -0.789062 50.1875 -2.117188 50.625 -3.453125 C 52.070312 -7.429688 53.664062 -11.363281 55.40625 -15.25 C 55.488281 -15.40625 55.554688 -15.566406 55.609375 -15.734375 C 55.703125 -15.929688 55.796875 -16.128906 55.890625 -16.328125 C 56.035156 -16.609375 56.164062 -16.890625 56.28125 -17.171875 C 56.394531 -17.453125 56.441406 -17.75 56.421875 -18.0625 C 56.273438 -18.175781 56.128906 -18.242188 55.984375 -18.265625 C 55.847656 -18.296875 55.710938 -18.296875 55.578125 -18.265625 C 55.546875 -18.265625 55.515625 -18.265625 55.484375 -18.265625 C 54.273438 -18.265625 53.066406 -18.253906 51.859375 -18.234375 C 51.523438 -18.234375 51.171875 -18.234375 50.796875 -18.234375 C 50.359375 -18.203125 49.984375 -18.054688 49.671875 -17.796875 C 49.367188 -17.546875 49.078125 -17.238281 48.796875 -16.875 C 48.421875 -16.394531 48.050781 -15.921875 47.6875 -15.453125 C 46.113281 -13.453125 44.53125 -11.46875 42.9375 -9.5 C 40.570312 -6.632812 38.101562 -3.875 35.53125 -1.21875 C 32.957031 1.425781 30.226562 3.914062 27.34375 6.25 C 23.71875 9.226562 19.867188 11.851562 15.796875 14.125 C 9.566406 17.476562 3.035156 19.0625 -3.796875 18.875 C -10.222656 18.738281 -16.023438 17.003906 -21.203125 13.671875 C -22.648438 12.742188 -23.9375 11.617188 -25.0625 10.296875 C -25.820312 9.367188 -26.421875 8.363281 -26.859375 7.28125 C -27.296875 6.207031 -27.515625 5.035156 -27.515625 3.765625 C -27.453125 2.253906 -27.101562 0.851562 -26.46875 -0.4375 C -25.84375 -1.738281 -24.96875 -2.921875 -23.84375 -3.984375 C -22.300781 -5.472656 -20.601562 -6.738281 -18.75 -7.78125 C -16.945312 -8.820312 -15.09375 -9.734375 -13.1875 -10.515625 C -11.28125 -11.304688 -9.351562 -12.007812 -7.40625 -12.625 C -4.269531 -13.625 -1.101562 -14.46875 2.09375 -15.15625 C 5.300781 -15.851562 8.523438 -16.441406 11.765625 -16.921875 C 19.421875 -17.984375 27.097656 -18.6875 34.796875 -19.03125 C 38.722656 -19.28125 42.640625 -19.40625 46.546875 -19.40625 C 47.617188 -19.375 48.453125 -19.828125 49.046875 -20.765625 C 50.078125 -22.210938 51.113281 -23.671875 52.15625 -25.140625 C 53.78125 -27.390625 55.378906 -29.675781 56.953125 -32 C 64.253906 -42.90625 71.25 -53.988281 77.9375 -65.25 C 78.5 -66.195312 79.050781 -67.164062 79.59375 -68.15625 C 79.84375 -68.65625 80.109375 -69.160156 80.390625 -69.671875 C 80.722656 -70.316406 81.253906 -70.679688 81.984375 -70.765625 C 82.378906 -70.765625 82.664062 -70.648438 82.84375 -70.421875 C 83.03125 -70.203125 83.054688 -69.90625 82.921875 -69.53125 C 82.773438 -69.226562 82.613281 -68.9375 82.4375 -68.65625 C 81.351562 -66.707031 80.390625 -64.738281 79.546875 -62.75 C 79.222656 -62.050781 78.910156 -61.363281 78.609375 -60.6875 C 75.660156 -54.289062 72.695312 -47.890625 69.71875 -41.484375 C 67.445312 -36.535156 65.15625 -31.582031 62.84375 -26.625 C 62.1875 -25.15625 61.53125 -23.691406 60.875 -22.234375 C 60.738281 -21.921875 60.597656 -21.628906 60.453125 -21.359375 C 60.429688 -21.285156 60.40625 -21.210938 60.375 -21.140625 C 60.289062 -20.929688 60.21875 -20.726562 60.15625 -20.53125 C 60.101562 -20.332031 60.117188 -20.140625 60.203125 -19.953125 C 60.398438 -19.816406 60.625 -19.738281 60.875 -19.71875 C 61.132812 -19.707031 61.367188 -19.703125 61.578125 -19.703125 C 61.765625 -19.734375 61.925781 -19.75 62.0625 -19.75 C 63.125 -19.71875 64.191406 -19.71875 65.265625 -19.75 C 66.722656 -19.75 68.179688 -19.734375 69.640625 -19.703125 C 77.609375 -19.566406 85.582031 -19.394531 93.5625 -19.1875 C 96.175781 -19.132812 98.773438 -19.023438 101.359375 -18.859375 C 101.585938 -18.835938 101.832031 -18.828125 102.09375 -18.828125 C 102.226562 -18.828125 102.378906 -18.828125 102.546875 -18.828125 C 102.878906 -18.828125 103.203125 -18.796875 103.515625 -18.734375 C 103.828125 -18.679688 104.125 -18.570312 104.40625 -18.40625 C 104.457031 -18.363281 104.492188 -18.300781 104.515625 -18.21875 C 104.546875 -18.132812 104.546875 -18.066406 104.515625 -18.015625 C 104.515625 -17.929688 104.476562 -17.851562 104.40625 -17.78125 C 104.34375 -17.707031 104.285156 -17.660156 104.234375 -17.640625 C 104.003906 -17.546875 103.757812 -17.5 103.5 -17.5 Z M 46.421875 -17.296875 C 46.503906 -17.472656 46.507812 -17.628906 46.4375 -17.765625 C 46.375 -17.910156 46.257812 -17.984375 46.09375 -17.984375 C 45.832031 -18.003906 45.566406 -18.003906 45.296875 -17.984375 C 45.148438 -17.984375 45.007812 -17.984375 44.875 -17.984375 C 35.226562 -17.867188 25.582031 -17.203125 15.9375 -15.984375 C 12.238281 -15.535156 8.5625 -14.945312 4.90625 -14.21875 C 1.257812 -13.5 -2.351562 -12.585938 -5.9375 -11.484375 C -7.851562 -10.898438 -9.742188 -10.226562 -11.609375 -9.46875 C -13.472656 -8.707031 -15.289062 -7.804688 -17.0625 -6.765625 C -18.914062 -5.722656 -20.601562 -4.457031 -22.125 -2.96875 C -23.894531 -1.144531 -24.890625 0.796875 -25.109375 2.859375 C -25.335938 4.921875 -24.785156 6.910156 -23.453125 8.828125 C -22.472656 10.171875 -21.300781 11.320312 -19.9375 12.28125 C -14.957031 15.8125 -9.023438 17.609375 -2.140625 17.671875 C -0.378906 17.671875 1.640625 17.441406 3.921875 16.984375 C 6.191406 16.515625 8.382812 15.820312 10.5 14.90625 C 12.625 13.988281 14.679688 12.914062 16.671875 11.6875 C 21.585938 8.65625 26.140625 5.128906 30.328125 1.109375 C 33.234375 -1.609375 35.96875 -4.46875 38.53125 -7.46875 C 41.09375 -10.476562 43.582031 -13.539062 46 -16.65625 C 46.132812 -16.882812 46.273438 -17.097656 46.421875 -17.296875 Z M 58.140625 -21.25 C 59.992188 -25.46875 61.898438 -29.671875 63.859375 -33.859375 C 63.953125 -34.085938 64.25 -34.742188 64.75 -35.828125 C 65.257812 -36.921875 65.84375 -38.191406 66.5 -39.640625 C 67.15625 -41.097656 67.753906 -42.46875 68.296875 -43.75 C 68.847656 -45.039062 69.234375 -46.007812 69.453125 -46.65625 C 69.679688 -47.300781 69.617188 -47.363281 69.265625 -46.84375 C 69.171875 -46.726562 69.097656 -46.613281 69.046875 -46.5 C 68.742188 -46.050781 68.453125 -45.601562 68.171875 -45.15625 C 65.835938 -41.53125 63.488281 -37.910156 61.125 -34.296875 C 58.757812 -30.679688 56.316406 -27.117188 53.796875 -23.609375 C 53.546875 -23.273438 53.296875 -22.925781 53.046875 -22.5625 C 52.554688 -21.894531 52.078125 -21.222656 51.609375 -20.546875 C 51.421875 -20.265625 51.367188 -20.03125 51.453125 -19.84375 C 51.535156 -19.664062 51.726562 -19.578125 52.03125 -19.578125 C 52.539062 -19.578125 53.046875 -19.585938 53.546875 -19.609375 C 54.335938 -19.671875 55.117188 -19.703125 55.890625 -19.703125 C 56.492188 -19.679688 56.960938 -19.8125 57.296875 -20.09375 C 57.628906 -20.375 57.910156 -20.757812 58.140625 -21.25 Z M 58.140625 -21.25" transform="translate(56.052 75.18)"/></g></g></g><g fill="#F44647"><g><g><path d="M 2.609375 -8.625 C 2.109375 -7.351562 1.578125 -6.085938 1.015625 -4.828125 C 0.148438 -2.804688 -0.84375 -0.835938 -1.96875 1.078125 C -2.757812 2.410156 -3.722656 3.359375 -4.859375 3.921875 C -5.992188 4.484375 -7.265625 4.753906 -8.671875 4.734375 C -9.890625 4.703125 -10.90625 4.265625 -11.71875 3.421875 C -11.820312 3.304688 -11.894531 3.175781 -11.9375 3.03125 C -11.976562 2.894531 -11.957031 2.757812 -11.875 2.625 C -11.769531 2.476562 -11.628906 2.398438 -11.453125 2.390625 C -11.285156 2.378906 -11.128906 2.398438 -10.984375 2.453125 C -10.796875 2.515625 -10.597656 2.601562 -10.390625 2.71875 C -10.253906 2.789062 -10.117188 2.863281 -9.984375 2.9375 C -8.992188 3.351562 -8.039062 3.421875 -7.125 3.140625 C -6.21875 2.859375 -5.429688 2.226562 -4.765625 1.25 C -4.085938 0.257812 -3.492188 -0.753906 -2.984375 -1.796875 C -2.960938 -1.847656 -2.9375 -1.890625 -2.90625 -1.921875 C -1.78125 -4.109375 -0.800781 -6.34375 0.03125 -8.625 C 0.175781 -8.988281 0.203125 -9.242188 0.109375 -9.390625 C 0.015625 -9.546875 -0.21875 -9.648438 -0.59375 -9.703125 C -0.757812 -9.742188 -0.925781 -9.765625 -1.09375 -9.765625 C -1.226562 -9.796875 -1.367188 -9.8125 -1.515625 -9.8125 C -1.679688 -9.832031 -1.820312 -9.882812 -1.9375 -9.96875 C -2.050781 -10.050781 -2.082031 -10.191406 -2.03125 -10.390625 C -1.988281 -10.554688 -1.894531 -10.679688 -1.75 -10.765625 C -1.613281 -10.847656 -1.460938 -10.90625 -1.296875 -10.9375 C -1.273438 -10.9375 -1.238281 -10.9375 -1.1875 -10.9375 C -0.769531 -11.019531 -0.347656 -11.078125 0.078125 -11.109375 C 0.472656 -11.109375 0.769531 -11.207031 0.96875 -11.40625 C 1.164062 -11.601562 1.332031 -11.878906 1.46875 -12.234375 C 2.257812 -14.429688 3.09375 -16.628906 3.96875 -18.828125 C 4.882812 -21.234375 5.972656 -23.585938 7.234375 -25.890625 C 7.773438 -26.929688 8.46875 -27.859375 9.3125 -28.671875 C 9.757812 -29.066406 10.238281 -29.375 10.75 -29.59375 C 11.257812 -29.820312 11.804688 -29.894531 12.390625 -29.8125 C 12.503906 -29.8125 12.609375 -29.773438 12.703125 -29.703125 C 12.796875 -29.640625 12.867188 -29.5625 12.921875 -29.46875 C 13.015625 -29.28125 12.992188 -29.132812 12.859375 -29.03125 C 12.734375 -28.925781 12.601562 -28.847656 12.46875 -28.796875 C 11.789062 -28.515625 11.25 -28.128906 10.84375 -27.640625 C 10.445312 -27.148438 10.085938 -26.613281 9.765625 -26.03125 C 8.503906 -23.664062 7.390625 -21.265625 6.421875 -18.828125 C 5.460938 -16.398438 4.5625 -13.941406 3.71875 -11.453125 C 4.28125 -11.128906 4.851562 -10.96875 5.4375 -10.96875 C 5.695312 -10.945312 5.96875 -10.910156 6.25 -10.859375 C 6.289062 -10.828125 6.359375 -10.8125 6.453125 -10.8125 C 6.597656 -10.78125 6.738281 -10.738281 6.875 -10.6875 C 6.925781 -10.65625 6.976562 -10.609375 7.03125 -10.546875 C 7.09375 -10.492188 7.109375 -10.441406 7.078125 -10.390625 C 7.078125 -10.304688 7.046875 -10.226562 6.984375 -10.15625 C 6.929688 -10.082031 6.875 -10.035156 6.8125 -10.015625 C 6.15625 -9.804688 5.488281 -9.722656 4.8125 -9.765625 C 4.644531 -9.765625 4.457031 -9.765625 4.25 -9.765625 C 3.4375 -9.796875 2.890625 -9.414062 2.609375 -8.625 Z M 2.609375 -8.625" transform="translate(116.759 75.18)"/></g></g></g><g fill="#F44647"><g><g><path d="M 7.609375 -8.0625 C 6.929688 -7.257812 6.125 -6.519531 5.1875 -5.84375 C 4.257812 -5.164062 3.207031 -4.707031 2.03125 -4.46875 C 0.851562 -4.238281 -0.0546875 -4.328125 -0.703125 -4.734375 C -1.359375 -5.140625 -1.488281 -6.046875 -1.09375 -7.453125 C -0.582031 -8.898438 0.117188 -10.285156 1.015625 -11.609375 C 1.222656 -11.890625 1.515625 -12.085938 1.890625 -12.203125 C 2.171875 -12.265625 2.414062 -12.210938 2.625 -12.046875 C 2.84375 -11.890625 2.925781 -11.691406 2.875 -11.453125 C 2.675781 -10.992188 2.460938 -10.535156 2.234375 -10.078125 C 2.003906 -9.617188 1.851562 -9.316406 1.78125 -9.171875 C 1.332031 -8.359375 1.019531 -7.503906 0.84375 -6.609375 C 0.84375 -6.097656 1.523438 -6.066406 2.890625 -6.515625 C 4.253906 -6.960938 5.582031 -7.78125 6.875 -8.96875 C 8.164062 -10.164062 8.78125 -10.515625 8.71875 -10.015625 C 8.664062 -9.523438 8.296875 -8.875 7.609375 -8.0625 Z M 4.265625 -14.484375 C 4.203125 -14.429688 4.070312 -14.367188 3.875 -14.296875 C 3.675781 -14.222656 3.460938 -14.171875 3.234375 -14.140625 C 3.015625 -14.109375 2.84375 -14.144531 2.71875 -14.25 C 2.59375 -14.351562 2.585938 -14.554688 2.703125 -14.859375 C 2.898438 -15.398438 3.109375 -15.867188 3.328125 -16.265625 C 3.554688 -16.671875 3.851562 -17.113281 4.21875 -17.59375 C 4.445312 -17.8125 4.691406 -17.929688 4.953125 -17.953125 C 5.222656 -17.972656 5.445312 -17.898438 5.625 -17.734375 C 5.800781 -17.578125 5.851562 -17.359375 5.78125 -17.078125 C 5.5 -16.066406 4.992188 -15.203125 4.265625 -14.484375 Z M 4.265625 -14.484375" transform="translate(124.17 75.18)"/></g></g></g><g fill="#F44647"><g><g><path d="M 96.1875 0.734375 C 96.238281 0.753906 96.289062 0.800781 96.34375 0.875 C 96.40625 0.945312 96.4375 1.023438 96.4375 1.109375 C 96.4375 1.253906 96.394531 1.363281 96.3125 1.4375 C 96.226562 1.519531 96.128906 1.5625 96.015625 1.5625 L 95.640625 1.53125 C 95.585938 1.550781 95.546875 1.5625 95.515625 1.5625 C 88.429688 1.175781 81.445312 0.941406 74.5625 0.859375 C 67.6875 0.773438 60.75 0.742188 53.75 0.765625 C 52.601562 0.765625 51.46875 0.765625 50.34375 0.765625 C 49.644531 0.765625 49.078125 0.894531 48.640625 1.15625 C 48.203125 1.425781 47.832031 1.898438 47.53125 2.578125 C 45.726562 6.679688 43.890625 10.769531 42.015625 14.84375 C 40.992188 17.0625 39.976562 19.28125 38.96875 21.5 C 38.238281 23.125 37.523438 24.765625 36.828125 26.421875 C 36.453125 27.242188 36.097656 28.0625 35.765625 28.875 C 35.742188 28.957031 35.703125 29.039062 35.640625 29.125 C 35.585938 29.351562 35.488281 29.566406 35.34375 29.765625 C 35.113281 29.953125 34.816406 30.0625 34.453125 30.09375 C 34.097656 30.125 33.785156 30.050781 33.515625 29.875 C 33.242188 29.707031 33.164062 29.414062 33.28125 29 C 33.539062 28.289062 33.820312 27.601562 34.125 26.9375 C 36.820312 20.789062 39.535156 14.640625 42.265625 8.484375 C 42.898438 7.054688 43.546875 5.609375 44.203125 4.140625 C 44.285156 3.921875 44.378906 3.679688 44.484375 3.421875 C 44.710938 2.910156 44.941406 2.410156 45.171875 1.921875 C 45.390625 1.359375 45.25 1.046875 44.75 0.984375 C 41.175781 1.066406 37.625 1.222656 34.09375 1.453125 C 32.238281 1.554688 30.363281 1.65625 28.46875 1.75 C 27.414062 1.769531 26.675781 2.269531 26.25 3.25 C 24.40625 7.25 22.476562 11.210938 20.46875 15.140625 C 19.289062 17.460938 18.097656 19.796875 16.890625 22.140625 C 16.441406 22.984375 15.992188 23.828125 15.546875 24.671875 C 15.296875 25.203125 15.015625 25.703125 14.703125 26.171875 C 14.398438 26.597656 13.984375 26.859375 13.453125 26.953125 C 12.929688 27.046875 12.476562 27.015625 12.09375 26.859375 C 11.707031 26.710938 11.523438 26.472656 11.546875 26.140625 C 11.691406 25.484375 11.890625 24.863281 12.140625 24.28125 C 14.160156 19.113281 16.363281 14.03125 18.75 9.03125 C 19.59375 7.257812 20.4375 5.488281 21.28125 3.71875 C 21.507812 3.15625 21.351562 2.835938 20.8125 2.765625 C 20.28125 2.691406 19.492188 2.710938 18.453125 2.828125 C 18.429688 2.828125 18.390625 2.828125 18.328125 2.828125 C 16.523438 2.992188 14.675781 3.242188 12.78125 3.578125 C 10.882812 3.921875 9.644531 4.175781 9.0625 4.34375 C 8.46875 4.488281 7.863281 4.5625 7.25 4.5625 C 7.21875 4.59375 7.175781 4.609375 7.125 4.609375 C 7.070312 4.609375 7.015625 4.59375 6.953125 4.5625 L 6.625 4.609375 C 6.507812 4.609375 6.394531 4.5625 6.28125 4.46875 C 6.164062 4.382812 6.109375 4.273438 6.109375 4.140625 C 6.128906 4.054688 6.175781 3.957031 6.25 3.84375 C 6.320312 3.726562 6.398438 3.644531 6.484375 3.59375 C 8.734375 2.800781 11.023438 2.253906 13.359375 1.953125 C 16.035156 1.554688 18.707031 1.21875 21.375 0.9375 C 22.269531 0.914062 22.898438 0.507812 23.265625 -0.28125 C 24.046875 -1.882812 24.859375 -3.484375 25.703125 -5.078125 C 26.710938 -6.960938 27.738281 -8.84375 28.78125 -10.71875 C 29.132812 -11.425781 29.5 -12.128906 29.875 -12.828125 C 29.925781 -12.890625 29.96875 -12.960938 30 -13.046875 C 30.101562 -13.273438 30.226562 -13.484375 30.375 -13.671875 C 31.070312 -14.492188 31.660156 -15.378906 32.140625 -16.328125 C 32.617188 -17.285156 33.054688 -18.269531 33.453125 -19.28125 C 33.640625 -19.707031 33.828125 -20.128906 34.015625 -20.546875 C 37.410156 -28.203125 40.757812 -35.878906 44.0625 -43.578125 C 45.582031 -46.953125 46.75 -50.425781 47.5625 -54 C 47.894531 -55.289062 47.976562 -56.582031 47.8125 -57.875 C 47.644531 -58.625 47.148438 -59.015625 46.328125 -59.046875 C 45.515625 -59.078125 44.523438 -58.863281 43.359375 -58.40625 C 42.203125 -57.957031 41 -57.410156 39.75 -56.765625 C 38.5 -56.117188 37.367188 -55.484375 36.359375 -54.859375 C 35.359375 -54.242188 34.613281 -53.785156 34.125 -53.484375 C 33.988281 -53.410156 33.894531 -53.351562 33.84375 -53.3125 C 20.664062 -45.113281 8.867188 -35.269531 -1.546875 -23.78125 C -2.703125 -22.519531 -3.804688 -21.210938 -4.859375 -19.859375 C -5.910156 -18.515625 -6.875 -17.097656 -7.75 -15.609375 C -8.414062 -14.484375 -8.945312 -13.304688 -9.34375 -12.078125 C -9.832031 -10.191406 -9.695312 -8.75 -8.9375 -7.75 C -8.175781 -6.757812 -7.035156 -6.09375 -5.515625 -5.75 C -3.992188 -5.414062 -2.34375 -5.296875 -0.5625 -5.390625 C 1.21875 -5.492188 2.894531 -5.675781 4.46875 -5.9375 C 6.050781 -6.207031 7.273438 -6.46875 8.140625 -6.71875 C 9.171875 -6.976562 10.210938 -7.222656 11.265625 -7.453125 C 12.148438 -7.617188 12.394531 -7.5625 12 -7.28125 C 11.601562 -7 10.75 -6.609375 9.4375 -6.109375 C 8.125 -5.617188 6.546875 -5.140625 4.703125 -4.671875 C 2.859375 -4.210938 0.953125 -3.882812 -1.015625 -3.6875 C -2.984375 -3.488281 -4.828125 -3.53125 -6.546875 -3.8125 C -8.273438 -4.09375 -9.679688 -4.734375 -10.765625 -5.734375 C -11.847656 -6.734375 -12.398438 -8.21875 -12.421875 -10.1875 C -12.421875 -10.238281 -12.421875 -10.289062 -12.421875 -10.34375 C -12.359375 -11.582031 -12.066406 -12.765625 -11.546875 -13.890625 C -10.660156 -15.910156 -9.535156 -17.789062 -8.171875 -19.53125 C -6.734375 -21.40625 -5.226562 -23.21875 -3.65625 -24.96875 C 6.457031 -36.0625 17.84375 -45.640625 30.5 -53.703125 C 32 -54.648438 33.738281 -55.691406 35.71875 -56.828125 C 37.695312 -57.972656 39.734375 -58.929688 41.828125 -59.703125 C 43.921875 -60.472656 45.878906 -60.820312 47.703125 -60.75 C 49.722656 -60.632812 50.828125 -59.578125 51.015625 -57.578125 C 51.109375 -56.835938 51.101562 -56.113281 51 -55.40625 C 50.90625 -54.707031 50.769531 -54.007812 50.59375 -53.3125 C 50.570312 -53.207031 50.546875 -53.097656 50.515625 -52.984375 C 50.148438 -51.296875 49.671875 -49.648438 49.078125 -48.046875 C 48.492188 -46.453125 47.863281 -44.867188 47.1875 -43.296875 C 41.425781 -29.609375 35.398438 -16.054688 29.109375 -2.640625 C 28.921875 -2.242188 28.742188 -1.835938 28.578125 -1.421875 C 28.296875 -0.765625 28.320312 -0.3125 28.65625 -0.0625 C 29 0.1875 29.566406 0.3125 30.359375 0.3125 C 31.160156 0.3125 32.097656 0.269531 33.171875 0.1875 C 33.335938 0.1875 33.503906 0.171875 33.671875 0.140625 C 34.367188 0.109375 35.082031 0.0664062 35.8125 0.015625 C 39.039062 -0.234375 42.242188 -0.40625 45.421875 -0.5 C 45.984375 -0.5 46.375 -0.734375 46.59375 -1.203125 C 46.84375 -1.710938 47.082031 -2.226562 47.3125 -2.75 C 51.46875 -11.882812 55.785156 -20.929688 60.265625 -29.890625 C 64.742188 -38.859375 69.289062 -47.789062 73.90625 -56.6875 C 73.945312 -56.800781 74.003906 -56.914062 74.078125 -57.03125 C 74.234375 -57.445312 74.476562 -57.796875 74.8125 -58.078125 C 75.070312 -58.222656 75.367188 -58.296875 75.703125 -58.296875 C 76.046875 -58.296875 76.332031 -58.21875 76.5625 -58.0625 C 76.800781 -57.90625 76.851562 -57.628906 76.71875 -57.234375 C 76.6875 -57.148438 76.644531 -57.054688 76.59375 -56.953125 C 76.226562 -55.992188 75.820312 -55.050781 75.375 -54.125 C 73.101562 -49.550781 70.8125 -44.984375 68.5 -40.421875 C 67.695312 -38.804688 66.882812 -37.179688 66.0625 -35.546875 C 60.707031 -24.847656 55.457031 -14.09375 50.3125 -3.28125 C 50.21875 -3.070312 50.117188 -2.875 50.015625 -2.6875 C 49.898438 -2.457031 49.800781 -2.234375 49.71875 -2.015625 C 49.40625 -1.335938 49.382812 -0.898438 49.65625 -0.703125 C 49.925781 -0.503906 50.351562 -0.4375 50.9375 -0.5 C 57.09375 -0.832031 63.363281 -0.90625 69.75 -0.71875 C 76.144531 -0.53125 82.488281 -0.269531 88.78125 0.0625 C 90.707031 0.144531 92.628906 0.238281 94.546875 0.34375 C 94.628906 0.34375 94.695312 0.34375 94.75 0.34375 C 95.007812 0.34375 95.265625 0.363281 95.515625 0.40625 C 95.765625 0.457031 95.988281 0.566406 96.1875 0.734375 Z M 96.1875 0.734375" transform="translate(153.528 75.18)"/></g></g></g><g fill="#F44647"><g><g><path d="M 3.046875 -4.53125 L 2.984375 -4.53125 C 1.128906 -4.5625 -0.0859375 -4.972656 -0.671875 -5.765625 C -1.253906 -6.566406 -1.226562 -7.632812 -0.59375 -8.96875 C -0.0625 -9.96875 0.613281 -10.847656 1.4375 -11.609375 C 1.71875 -11.859375 2.003906 -12.0625 2.296875 -12.21875 C 2.585938 -12.375 2.921875 -12.453125 3.296875 -12.453125 C 3.515625 -12.484375 3.765625 -12.441406 4.046875 -12.328125 C 4.128906 -12.304688 4.21875 -12.273438 4.3125 -12.234375 C 4.53125 -12.273438 4.738281 -12.347656 4.9375 -12.453125 C 4.988281 -12.484375 5.0625 -12.515625 5.15625 -12.546875 C 5.570312 -12.710938 6.015625 -12.78125 6.484375 -12.75 C 6.679688 -12.75 6.878906 -12.75 7.078125 -12.75 C 7.835938 -12.632812 8.40625 -12.316406 8.78125 -11.796875 C 9.164062 -11.285156 9.300781 -10.660156 9.1875 -9.921875 C 9.125 -9.472656 8.984375 -9.050781 8.765625 -8.65625 C 7.296875 -6.019531 5.425781 -4.644531 3.15625 -4.53125 Z M 6.078125 -11.390625 C 5.066406 -11.429688 4.164062 -11.140625 3.375 -10.515625 C 2.59375 -9.898438 2.007812 -9.191406 1.625 -8.390625 C 1.238281 -7.585938 1.128906 -6.925781 1.296875 -6.40625 C 1.472656 -5.882812 2.007812 -5.738281 2.90625 -5.96875 C 3.914062 -6.28125 4.804688 -6.859375 5.578125 -7.703125 C 6.347656 -8.546875 6.816406 -9.34375 6.984375 -10.09375 C 7.160156 -10.851562 6.859375 -11.285156 6.078125 -11.390625 Z M 6.078125 -11.390625" transform="translate(214.196 75.18)"/></g></g></g><g fill="#F44647"><g><g><path d="M 9.265625 -9.703125 C 7.253906 -8.953125 5.800781 -8.34375 4.90625 -7.875 C 4.25 -7.550781 3.875 -7.285156 3.78125 -7.078125 C 3.6875 -6.867188 3.757812 -6.484375 4 -5.921875 C 4 -5.890625 4.019531 -5.847656 4.0625 -5.796875 C 4.34375 -5.117188 4.507812 -4.421875 4.5625 -3.703125 C 4.644531 -2.234375 3.394531 -1.203125 0.8125 -0.609375 C -1.769531 -0.0234375 -3.5 -0.00390625 -4.375 -0.546875 C -5.25 -1.097656 -5.515625 -1.796875 -5.171875 -2.640625 C -4.835938 -3.484375 -3.960938 -4.335938 -2.546875 -5.203125 C -1.128906 -6.078125 -0.179688 -6.703125 0.296875 -7.078125 C 0.773438 -7.460938 0.921875 -7.894531 0.734375 -8.375 C 0.660156 -8.539062 0.585938 -8.703125 0.515625 -8.859375 C 0.347656 -9.253906 0.175781 -9.664062 0 -10.09375 C -0.332031 -10.851562 -0.472656 -11.601562 -0.421875 -12.34375 C -0.378906 -13.09375 -0.109375 -13.71875 0.390625 -14.21875 C 0.898438 -14.71875 1.679688 -14.988281 2.734375 -15.03125 C 3.335938 -15.0625 3.875 -14.984375 4.34375 -14.796875 C 4.820312 -14.609375 5.203125 -14.265625 5.484375 -13.765625 C 5.710938 -13.421875 5.640625 -13.109375 5.265625 -12.828125 C 5.023438 -12.640625 4.765625 -12.613281 4.484375 -12.75 C 4.304688 -12.832031 4.132812 -12.941406 3.96875 -13.078125 C 3.96875 -13.117188 3.96875 -13.140625 3.96875 -13.140625 C 3.882812 -13.191406 3.8125 -13.242188 3.75 -13.296875 C 3.675781 -13.410156 3.59375 -13.5 3.5 -13.5625 C 3.164062 -13.800781 2.828125 -13.875 2.484375 -13.78125 C 2.148438 -13.6875 1.90625 -13.425781 1.75 -13 C 1.625 -12.664062 1.5625 -12.328125 1.5625 -11.984375 C 1.59375 -11.566406 1.691406 -11.160156 1.859375 -10.765625 C 1.972656 -10.515625 2.070312 -10.289062 2.15625 -10.09375 C 2.375 -9.53125 2.550781 -9.144531 2.6875 -8.9375 C 2.832031 -8.726562 3.003906 -8.640625 3.203125 -8.671875 C 3.398438 -8.703125 5.210938 -9.347656 8.640625 -10.609375 C 9.378906 -10.847656 9.585938 -10.546875 9.265625 -9.703125 Z M 0.984375 -2.390625 C 1.867188 -2.703125 2.242188 -3.300781 2.109375 -4.1875 C 2.109375 -4.257812 2.09375 -4.332031 2.0625 -4.40625 C 2.007812 -4.882812 1.90625 -5.253906 1.75 -5.515625 C 1.601562 -5.785156 1.265625 -5.78125 0.734375 -5.5 C -0.597656 -4.738281 -1.828125 -3.859375 -2.953125 -2.859375 C -3.023438 -2.765625 -3.09375 -2.679688 -3.15625 -2.609375 C -3.15625 -2.609375 -3.171875 -2.585938 -3.203125 -2.546875 C -3.273438 -2.441406 -3.285156 -2.328125 -3.234375 -2.203125 C -3.179688 -2.078125 -3.066406 -2.015625 -2.890625 -2.015625 C -1.578125 -1.804688 -0.285156 -1.929688 0.984375 -2.390625 Z M 0.984375 -2.390625" transform="translate(224.365 75.18)"/></g></g></g><g fill="#F44647"><g><g><path d="M 10.921875 -7.34375 C 10.179688 -6.625 9.316406 -6.003906 8.328125 -5.484375 C 7.347656 -4.960938 6.523438 -4.625 5.859375 -4.46875 C 5.191406 -4.3125 4.507812 -4.21875 3.8125 -4.1875 C 2.6875 -4.144531 1.648438 -4.300781 0.703125 -4.65625 C -0.835938 -5.28125 -1.375 -6.472656 -0.90625 -8.234375 C -0.457031 -9.753906 0.445312 -10.941406 1.8125 -11.796875 C 3.1875 -12.648438 4.597656 -13.066406 6.046875 -13.046875 C 6.046875 -13.046875 6.0625 -13.046875 6.09375 -13.046875 C 6.457031 -13.066406 6.804688 -13.039062 7.140625 -12.96875 C 7.703125 -12.757812 8.054688 -12.425781 8.203125 -11.96875 C 8.359375 -11.507812 8.257812 -11 7.90625 -10.4375 C 7.09375 -9.195312 5.984375 -8.507812 4.578125 -8.375 C 3.640625 -8.28125 2.738281 -8.320312 1.875 -8.5 C 1.707031 -8.53125 1.5625 -8.488281 1.4375 -8.375 C 1.3125 -8.257812 1.234375 -8.117188 1.203125 -7.953125 C 0.953125 -6.847656 1.289062 -6.144531 2.21875 -5.84375 C 3.363281 -5.445312 4.554688 -5.445312 5.796875 -5.84375 C 7.234375 -6.289062 8.59375 -7.128906 9.875 -8.359375 C 11.164062 -9.597656 11.910156 -10.175781 12.109375 -10.09375 C 12.304688 -10.019531 12.367188 -9.785156 12.296875 -9.390625 C 12.117188 -8.753906 11.660156 -8.070312 10.921875 -7.34375 Z M 2.75 -10.4375 C 2.675781 -10.34375 2.625 -10.242188 2.59375 -10.140625 C 2.5625 -10.035156 2.601562 -9.9375 2.71875 -9.84375 C 3.164062 -9.582031 3.648438 -9.488281 4.171875 -9.5625 C 4.691406 -9.632812 5.132812 -9.832031 5.5 -10.15625 C 5.863281 -10.476562 6.019531 -10.878906 5.96875 -11.359375 C 5.9375 -11.523438 5.847656 -11.628906 5.703125 -11.671875 C 5.566406 -11.710938 5.425781 -11.722656 5.28125 -11.703125 C 4.34375 -11.535156 3.5 -11.113281 2.75 -10.4375 Z M 2.75 -10.4375" transform="translate(241.332 75.18)"/></g></g></g><g fill="#F44647"><g><g><path d="M 15.171875 -9.5625 C 15.367188 -9.300781 15.109375 -8.832031 14.390625 -8.15625 C 13.679688 -7.476562 12.925781 -6.910156 12.125 -6.453125 C 11.320312 -5.992188 10.390625 -5.535156 9.328125 -5.078125 C 8.617188 -4.765625 7.867188 -4.660156 7.078125 -4.765625 C 6.285156 -4.867188 5.890625 -5.347656 5.890625 -6.203125 C 5.890625 -7.054688 6.085938 -7.90625 6.484375 -8.75 C 6.878906 -9.613281 6.96875 -10.054688 6.75 -10.078125 C 6.53125 -10.109375 6.066406 -9.898438 5.359375 -9.453125 C 3.535156 -8.253906 1.835938 -6.882812 0.265625 -5.34375 C -0.148438 -4.832031 -0.6875 -4.550781 -1.34375 -4.5 C -1.675781 -4.5 -1.929688 -4.601562 -2.109375 -4.8125 C -2.296875 -5.019531 -2.320312 -5.25 -2.1875 -5.5 C -1.0625 -7.582031 0.0703125 -9.632812 1.21875 -11.65625 C 1.476562 -12.082031 1.863281 -12.347656 2.375 -12.453125 C 2.59375 -12.484375 2.789062 -12.410156 2.96875 -12.234375 C 3.15625 -12.066406 3.25 -11.875 3.25 -11.65625 C 3.226562 -11.457031 3.144531 -11.21875 3 -10.9375 C 2.9375 -10.769531 2.875 -10.609375 2.8125 -10.453125 C 2.757812 -10.296875 2.742188 -10.164062 2.765625 -10.0625 C 2.785156 -9.96875 2.863281 -9.941406 3 -9.984375 C 3.195312 -10.078125 3.390625 -10.179688 3.578125 -10.296875 C 4.066406 -10.578125 4.535156 -10.847656 4.984375 -11.109375 C 5.378906 -11.335938 5.789062 -11.539062 6.21875 -11.71875 C 6.65625 -11.894531 7.109375 -12.015625 7.578125 -12.078125 C 8.347656 -12.128906 8.890625 -11.957031 9.203125 -11.5625 C 9.523438 -11.164062 9.566406 -10.617188 9.328125 -9.921875 C 9.066406 -9.285156 8.796875 -8.65625 8.515625 -8.03125 C 8.171875 -7.4375 8.113281 -6.984375 8.34375 -6.671875 C 8.570312 -6.367188 9.640625 -6.722656 11.546875 -7.734375 L 12.984375 -8.578125 C 14.335938 -9.441406 15.066406 -9.769531 15.171875 -9.5625 Z M 15.171875 -9.5625" transform="translate(259.946 75.18)"/></g></g></g></svg>